<svg id="visual" viewBox="0 0 1920 460" width="1920" height="460" xmlns="http://www.w3.org/2000/svg" xmlns:xlink="http://www.w3.org/1999/xlink" version="1.1"><rect x="0" y="0" width="1920" height="460" fill="#101720"></rect><path d="M0 29L40 37.5C80 46 160 63 240 66.3C320 69.7 400 59.3 480 54.8C560 50.3 640 51.7 720 55.2C800 58.7 880 64.3 960 60.7C1040 57 1120 44 1200 39.2C1280 34.3 1360 37.7 1440 45.7C1520 53.7 1600 66.3 1680 68.7C1760 71 1840 63 1880 59L1920 55" fill="none" stroke-linecap="round" stroke-linejoin="miter" stroke="#ffffff" stroke-width="50"></path></svg>