<svg id="visual" viewBox="0 0 1920 1200" width="1920" height="1200" xmlns="http://www.w3.org/2000/svg" xmlns:xlink="http://www.w3.org/1999/xlink" version="1.1"><rect x="0" y="0" width="1920" height="1200" fill="#101720"></rect><path d="M1208 1200L1252.3 1150C1296.7 1100 1385.3 1000 1390.3 900C1395.3 800 1316.7 700 1188.5 600C1060.3 500 882.7 400 840 300C797.3 200 889.7 100 935.8 50L982 0L1920 0L1920 50C1920 100 1920 200 1920 300C1920 400 1920 500 1920 600C1920 700 1920 800 1920 900C1920 1000 1920 1100 1920 1150L1920 1200Z" fill="#fbce47" stroke-linecap="round" stroke-linejoin="miter"></path></svg>