<svg xmlns="http://www.w3.org/2000/svg" viewBox="0 0 1920 1080"><g transform="
          rotate(235 960 540) 
          translate(-988.6528678168836 -556.1172381469969)
          scale(2.0298467373092537)
        "><rect width="1920" height="1080" fill="rgb(0, 0, 0)"></rect><g transform="translate(0, 0)"><path fill="rgb(143, 0, 74)" fill-opacity="1" d="M0,488.566L35.556,444.304C71.111,400.042,142.222,311.517,213.333,270.288C284.444,229.059,355.556,235.126,426.667,347.599C497.778,460.072,568.889,678.951,640,729.863C711.111,780.775,782.222,663.721,853.333,627.368C924.444,591.014,995.556,635.362,1066.667,655.503C1137.778,675.645,1208.889,671.58,1280,588.563C1351.111,505.547,1422.222,343.58,1493.333,378.632C1564.444,413.684,1635.556,645.756,1706.667,726.987C1777.778,808.218,1848.889,738.608,1884.444,703.803L1920,668.999L1920,1080L1884.444,1080C1848.889,1080,1777.778,1080,1706.667,1080C1635.556,1080,1564.444,1080,1493.333,1080C1422.222,1080,1351.111,1080,1280,1080C1208.889,1080,1137.778,1080,1066.667,1080C995.556,1080,924.444,1080,853.333,1080C782.222,1080,711.111,1080,640,1080C568.889,1080,497.778,1080,426.667,1080C355.556,1080,284.444,1080,213.333,1080C142.222,1080,71.111,1080,35.556,1080L0,1080Z"></path></g></g></svg>